<svg width="200" height="200" xmlns="http://www.w3.org/2000/svg">
  <defs>
    <linearGradient id="communityGradient" x1="0%" y1="0%" x2="100%" y2="100%">
      <stop offset="0%" style="stop-color:#1F61AA;stop-opacity:1" />
      <stop offset="100%" style="stop-color:#EEECEF;stop-opacity:1" />
    </linearGradient>
  </defs>
  
  <!-- Background circle -->
  <circle cx="100" cy="100" r="90" fill="url(#communityGradient)" opacity="0.1"/>
  
  <!-- Central circle -->
  <circle cx="100" cy="100" r="25" fill="#1F61AA"/>
  
  <!-- Surrounding circles (people) -->
  <circle cx="100" cy="50" r="15" fill="#D2EA4C"/>
  <circle cx="140" cy="70" r="15" fill="#D2EA4C"/>
  <circle cx="140" cy="130" r="15" fill="#D2EA4C"/>
  <circle cx="100" cy="150" r="15" fill="#D2EA4C"/>
  <circle cx="60" cy="130" r="15" fill="#D2EA4C"/>
  <circle cx="60" cy="70" r="15" fill="#D2EA4C"/>
  
  <!-- Connection lines -->
  <line x1="100" y1="75" x2="100" y2="85" stroke="#1F61AA" stroke-width="2"/>
  <line x1="125" y1="85" x2="135" y2="85" stroke="#1F61AA" stroke-width="2"/>
  <line x1="125" y1="115" x2="135" y2="115" stroke="#1F61AA" stroke-width="2"/>
  <line x1="100" y1="125" x2="100" y2="135" stroke="#1F61AA" stroke-width="2"/>
  <line x1="75" y1="115" x2="65" y2="115" stroke="#1F61AA" stroke-width="2"/>
  <line x1="75" y1="85" x2="65" y2="85" stroke="#1F61AA" stroke-width="2"/>
  
  <!-- Hearts -->
  <path d="M 100 40 Q 95 35 90 40 Q 95 45 100 40" fill="#D2EA4C" opacity="0.7"/>
  <path d="M 150 100 Q 145 95 140 100 Q 145 105 150 100" fill="#D2EA4C" opacity="0.7"/>
  <path d="M 100 160 Q 95 155 90 160 Q 95 165 100 160" fill="#D2EA4C" opacity="0.7"/>
  <path d="M 50 100 Q 45 95 40 100 Q 45 105 50 100" fill="#D2EA4C" opacity="0.7"/>
  
  <!-- Text -->
  <text x="100" y="190" font-family="Arial, sans-serif" font-size="14" font-weight="bold" text-anchor="middle" fill="#1F61AA">Community</text>
</svg>
